<svg xmlns="http://www.w3.org/2000/svg" viewBox="0 0 155.16 28.89"><defs><style>.cls-1{fill:white;}</style></defs><title>logo</title><g id="Layer_2" data-name="Layer 2"><g id="Layer_1-2" data-name="Layer 1"><path class="cls-1" d="M3.37,10.26a8.82,8.82,0,0,1,15.45,5.83V27.22a1.67,1.67,0,0,1-1.66,1.67,1.69,1.69,0,0,1-1.71-1.67V16.09c0-3.37-2.85-5.83-6.34-5.83-2.53,0-4.75.72-5.74,2.82V27.26a1.66,1.66,0,0,1-1.71,1.63A1.64,1.64,0,0,1,0,27.26V10.7A3.37,3.37,0,0,1,3.37,7.33Z"/><path class="cls-1" d="M41.6,18.43a10.19,10.19,0,0,1-9.9,10.46,10.2,10.2,0,0,1-9.91-10.46c0-5.79,4.44-10.5,9.91-10.5S41.6,12.64,41.6,18.43Zm-3.36,0c0-4.2-3.21-7.57-6.54-7.57s-6.54,3.37-6.54,7.57S28.37,26,31.7,26,38.24,22.59,38.24,18.43Z"/><path class="cls-1" d="M74.33,7.57a3.38,3.38,0,0,1,1.94,3.84l0,0L69,27.7a1.67,1.67,0,0,1-3.09,0l-5.7-14.11L53.81,27.86a1.68,1.68,0,0,1-3.1,0L43.5,10a1.67,1.67,0,0,1,1-2.18,1.68,1.68,0,0,1,2.22.91L52.34,22.9,58.8,8.44a1.79,1.79,0,0,1,.87-.75,1.69,1.69,0,0,1,2.22.91l5.67,14.15,5.66-12.69Z"/><path class="cls-1" d="M82.41,11.17a9.06,9.06,0,0,1,6.46-3.36,8.59,8.59,0,0,1,8.6,8.6V27.22a1.64,1.64,0,0,1-1.63,1.67,1.67,1.67,0,0,1-1.66-1.67V16.41A6,6,0,0,0,88,10.54a6.16,6.16,0,0,0-5.63,3.37V27.22a1.64,1.64,0,0,1-1.62,1.67,1.67,1.67,0,0,1-1.67-1.67V3.29A3.29,3.29,0,0,1,82.41,0Z"/><path class="cls-1" d="M116.53,26.67a9.65,9.65,0,0,1-6.15,2.22c-5.5,0-9.94-4.72-9.94-10.54s3.68-10.54,9.15-10.54c4.87,0,7.65,3.68,8.24,8.6a1.32,1.32,0,0,1,.08.43,1.34,1.34,0,0,1-.63,1.15,1.26,1.26,0,0,1-.75.28H104v.08c0,4.2,3.06,7.57,6.78,7.57a6.21,6.21,0,0,0,4-1.51h0a1.5,1.5,0,0,1,.83-.28A1.42,1.42,0,0,1,117,25.56a1.35,1.35,0,0,1-.51,1.07Zm-1.79-11.22c-.67-2.73-2.38-4.83-5.19-4.83s-4.56,2.1-5.27,4.83Z"/><path class="cls-1" d="M124.25,10.94a8.78,8.78,0,0,1,6.66-3,8.49,8.49,0,0,1,3.6.79,1.53,1.53,0,0,1,1.19,1.5,1.59,1.59,0,0,1-1.58,1.59,1.55,1.55,0,0,1-.91-.32h0a6.9,6.9,0,0,0-3.21-.83c-2.58,0-4.76,1-5.79,3.13V27.18a1.69,1.69,0,1,1-3.37,0h0V10.94a3.34,3.34,0,0,1,3.33-3.13Z"/><path class="cls-1" d="M153.77,26.67a9.64,9.64,0,0,1-6.14,2.22c-5.51,0-9.95-4.72-9.95-10.54s3.69-10.54,9.15-10.54c4.88,0,7.65,3.68,8.25,8.6a1.31,1.31,0,0,1-.56,1.58,1.23,1.23,0,0,1-.75.28H141.21v.08c0,4.2,3,7.57,6.77,7.57a6.19,6.19,0,0,0,4-1.51h0a1.51,1.51,0,0,1,.84-.28,1.41,1.41,0,0,1,1.38,1.43,1.32,1.32,0,0,1-.51,1.07ZM152,15.45c-.68-2.73-2.38-4.83-5.2-4.83s-4.55,2.1-5.27,4.83Z"/></g></g></svg>